;<svg width="14" height="14" viewBox="0 0 14 14" fill="none" xmlns="http://www.w3.org/2000/svg">
  <path
    d="M7 0C3.143 0 0 3.143 0 7C0 10.857 3.143 14 7 14C10.857 14 14 10.857 14 7C14 3.143 10.857 0 7 0ZM6.3 9.8C6.3 9.415 6.615 9.1 7 9.1C7.385 9.1 7.7 9.415 7.7 9.8C7.7 10.185 7.385 10.5 7 10.5C6.615 10.5 6.3 10.185 6.3 9.8ZM9.1 6.3C9.1 7.07 8.47 7.7 7.7 7.7C7.7 8.085 7.385 8.4 7 8.4C6.615 8.4 6.3 8.085 6.3 7.7C6.3 6.93 6.93 6.3 7.7 6.3V5.6C7.7 5.215 7.385 4.9 7 4.9C6.615 4.9 6.3 5.215 6.3 5.6V6.3C6.3 6.685 5.985 7 5.6 7C5.215 7 4.9 6.685 4.9 6.3V5.6C4.9 4.445 5.845 3.5 7 3.5C8.155 3.5 9.1 4.445 9.1 5.6V6.3Z"
    fill="#5A5A5A"
  />
</svg>
