<svg width="15" height="15" viewBox="0 0 15 15" fill="none" xmlns="http://www.w3.org/2000/svg">
<path d="M12 15H3C1.34625 15 0 13.6537 0 12C0 11.1713 0.67125 10.5 1.5 10.5C2.32875 10.5 3 11.1713 3 12H12V3H3C3 3.82875 2.32875 4.5 1.5 4.5C0.67125 4.5 0 3.82875 0 3C0 1.34625 1.34625 0 3 0H12C13.6537 0 15 1.34625 15 3V12C15 13.6537 13.6537 15 12 15Z" fill="white"/>
<path d="M10.2788 6.9713L7.27875 3.9713C7.065 3.75755 6.7425 3.6938 6.46125 3.81005C6.18 3.9263 6 4.20005 6 4.5038V6.0038H1.5C0.67125 6.0038 0 6.67505 0 7.5038C0 8.33255 0.67125 9.0038 1.5 9.0038H6V10.5038C6 10.8075 6.18375 11.0813 6.46125 11.1975C6.555 11.235 6.6525 11.2538 6.75 11.2538C6.945 11.2538 7.13625 11.1788 7.27875 11.0325L10.2788 8.03255C10.5713 7.74005 10.5713 7.2638 10.2788 6.9713Z" fill="white"/>
</svg>
