;<svg width="15" height="16" viewBox="0 0 15 16" fill="none" xmlns="http://www.w3.org/2000/svg">
  <path
    d="M4.84858 0.8C4.84858 0.36 4.48899 0 4.0405 0C3.59202 0 3.23242 0.36 3.23242 0.8V1.6H4.84858V0.8Z"
    fill="#b2b2b2"
  />
  <path
    d="M11.3129 0.8C11.3129 0.36 10.9533 0 10.5049 0C10.0564 0 9.69678 0.36 9.69678 0.8V1.6H11.3129V0.8Z"
    fill="#b2b2b2"
  />
  <path
    d="M12.1212 1.6001H11.3131V4.0001C11.3131 4.4401 10.9535 4.8001 10.5051 4.8001C10.0566 4.8001 9.69697 4.4401 9.69697 4.0001V1.6001H4.84848V4.0001C4.84848 4.4401 4.48889 4.8001 4.0404 4.8001C3.59192 4.8001 3.23232 4.4401 3.23232 4.0001V1.6001H2.42424C1.08687 1.6001 0 2.6761 0 4.0001V13.6001C0 14.9241 1.08687 16.0001 2.42424 16.0001H12.1212C13.4586 16.0001 14.5455 14.9241 14.5455 13.6001V4.0001C14.5455 2.6761 13.4586 1.6001 12.1212 1.6001Z"
    fill="#b2b2b2"
  />
</svg>
