<svg width="10" height="14" viewBox="0 0 10 14" fill="none" xmlns="http://www.w3.org/2000/svg">
    <path d="M3.074 4.42156C4.14201 4.42156 5.0078 3.55576 5.0078 2.48776C5.0078 1.41975 4.14201 0.553955 3.074 0.553955C2.00599 0.553955 1.1402 1.41975 1.1402 2.48776C1.1402 3.55576 2.00599 4.42156 3.074 4.42156Z" fill="#525252"/>
    <path d="M7.50884 6.61313C8.26178 6.61313 8.87217 6.00275 8.87217 5.2498C8.87217 4.49686 8.26178 3.88647 7.50884 3.88647C6.75589 3.88647 6.14551 4.49686 6.14551 5.2498C6.14551 6.00275 6.75589 6.61313 7.50884 6.61313Z" fill="#525252"/>
    <path d="M7.64419 7.0193H6.85778C6.54193 7.0193 6.24863 7.12244 6.00691 7.2997L5.97468 7.21913V7.19657L5.64916 6.38437L5.60726 6.28123C5.31074 5.54317 4.60813 5.06616 3.81205 5.06616H2.75168C1.33034 5.06616 0.173279 6.22322 0.173279 7.64456V9.57836C0.173279 9.93289 0.463349 10.223 0.817879 10.223V11.5122C0.817879 12.579 1.68487 13.446 2.75168 13.446C3.81849 13.446 4.68548 12.579 4.68548 11.5122V9.18193C4.87564 9.24639 5.06257 9.30763 5.25273 9.37209C5.25273 9.37209 5.25917 9.37209 5.2624 9.37209C5.42999 9.42688 5.59759 9.4849 5.76841 9.53969C5.78452 9.54613 5.80064 9.54613 5.81675 9.55258C5.9908 9.61382 6.14872 9.66538 6.19062 9.67183H6.20351L6.21318 10.0747V12.0085C6.21318 12.8014 6.85456 13.4427 7.64742 13.4427C8.44028 13.4427 9.08165 12.7981 9.08165 12.0085V10.8482C9.34916 10.8482 9.56188 10.6355 9.56188 10.3712V8.93699C9.56188 7.87984 8.70456 7.02252 7.64742 7.02252L7.64419 7.0193Z" fill="#525252"/>
</svg>
