;<svg width="14" height="12" viewBox="0 0 14 12" fill="none" xmlns="http://www.w3.org/2000/svg">
  <path
    d="M11.9 0H2.1C0.9415 0 0 0.896667 0 2V10C0 11.1033 0.9415 12 2.1 12H11.9C13.0585 12 14 11.1033 14 10V2C14 0.896667 13.0585 0 11.9 0ZM4.9 2C6.0585 2 7 2.89667 7 4C7 5.10333 6.0585 6 4.9 6C3.7415 6 2.8 5.10333 2.8 4C2.8 2.89667 3.7415 2 4.9 2ZM7.7 9.33333C7.7 9.7 7.385 10 7 10H2.8C2.415 10 2.1 9.7 2.1 9.33333V8.66667C2.1 7.56333 3.0415 6.66667 4.2 6.66667H5.6C6.7585 6.66667 7.7 7.56333 7.7 8.66667V9.33333ZM11.2 9.33333H9.1C8.715 9.33333 8.4 9.03333 8.4 8.66667C8.4 8.3 8.715 8 9.1 8H11.2C11.585 8 11.9 8.3 11.9 8.66667C11.9 9.03333 11.585 9.33333 11.2 9.33333ZM11.2 6.66667H9.1C8.715 6.66667 8.4 6.36667 8.4 6C8.4 5.63333 8.715 5.33333 9.1 5.33333H11.2C11.585 5.33333 11.9 5.63333 11.9 6C11.9 6.36667 11.585 6.66667 11.2 6.66667ZM11.2 4H9.1C8.715 4 8.4 3.7 8.4 3.33333C8.4 2.96667 8.715 2.66667 9.1 2.66667H11.2C11.585 2.66667 11.9 2.96667 11.9 3.33333C11.9 3.7 11.585 4 11.2 4Z"
    fill="#EA660C"
  />
</svg>
