<svg width="16" height="16" viewBox="0 0 16 16" fill="none" xmlns="http://www.w3.org/2000/svg">
<path d="M8.88889 4.44434H2.66667C1.19391 4.44434 0 5.63824 0 7.111V13.3332C0 14.806 1.19391 15.9999 2.66667 15.9999H8.88889C10.3616 15.9999 11.5556 14.806 11.5556 13.3332V7.111C11.5556 5.63824 10.3616 4.44434 8.88889 4.44434Z" fill="#525252"/>
<path d="M16 2.66667V8.88889C16 10.3556 14.8 11.5556 13.3333 11.5556V7.11111C13.3333 4.65778 11.3422 2.66667 8.8889 2.66667H4.44446C4.44446 1.2 5.64446 0 7.11112 0H13.3333C14.8 0 16 1.2 16 2.66667Z" fill="#525252"/>
</svg>
