<svg width="22" height="28" viewBox="0 0 22 28" fill="none" xmlns="http://www.w3.org/2000/svg">
<path d="M16.5 26.6956L21.1956 22H16.5V26.6956Z" fill="#6A6A6A"/>
<path d="M17.875 0H4.125C1.84938 0 0 1.84938 0 4.125V23.375C0 25.6506 1.84938 27.5 4.125 27.5H13.75V22C13.75 20.4806 14.9806 19.25 16.5 19.25H22V4.125C22 1.84938 20.1506 0 17.875 0ZM16.0944 11.9694L10.5944 17.4694C10.3263 17.7375 9.97563 17.875 9.625 17.875C9.27437 17.875 8.92375 17.7375 8.65563 17.4694L5.90563 14.7194C5.36938 14.1831 5.36938 13.31 5.90563 12.7738C6.44187 12.2375 7.315 12.2375 7.85125 12.7738L9.63188 14.5544L14.1625 10.0238C14.6988 9.4875 15.5719 9.4875 16.1081 10.0238C16.6444 10.56 16.6444 11.4331 16.1081 11.9694H16.0944Z" fill="#6A6A6A"/>
</svg>
