;<svg width="19" height="15" viewBox="0 0 19 15" fill="none" xmlns="http://www.w3.org/2000/svg">
  <path
    d="M17.2996 0.716602C16.1928 -0.237565 14.2643 -0.237565 13.1575 0.716602L6.21681 6.71244C6.10564 6.80827 6.02831 6.92077 5.97997 7.04993L4.67014 10.5791C4.55898 10.8749 4.65081 11.2041 4.90697 11.4249C5.09064 11.5833 5.33714 11.6708 5.58847 11.6708C5.68514 11.6708 5.78664 11.6583 5.88331 11.6291L9.96747 10.4999C10.1125 10.4583 10.2478 10.3874 10.3541 10.2958L17.2948 4.29993C17.8458 3.82077 18.1551 3.18743 18.1551 2.50827C18.1551 1.8291 17.8506 1.19577 17.2948 0.720768L17.2996 0.716602Z"
    fill="white"
  />
  <path
    d="M15.26 15H3.66001C2.06018 15 0.76001 13.8792 0.76001 12.5V2.5C0.76001 1.12083 2.06018 0 3.66001 0H8.49334C9.02501 0 9.46001 0.370833 9.46001 0.833333C9.46001 1.29583 9.02501 1.66667 8.49334 1.66667H3.66001C3.12834 1.66667 2.69334 2.04167 2.69334 2.5V12.5C2.69334 12.9583 3.12834 13.3333 3.66001 13.3333H15.26C15.7917 13.3333 16.2267 12.9583 16.2267 12.5V8.33333C16.2267 7.87083 16.6617 7.5 17.1933 7.5C17.725 7.5 18.16 7.87083 18.16 8.33333V12.5C18.16 13.8792 16.8598 15 15.26 15Z"
    fill="white"
  />
</svg>
