<svg width="13" height="14" viewBox="0 0 13 14" fill="none" xmlns="http://www.w3.org/2000/svg">
    <g clip-path="url(#clip0_135_5046)">
        <path d="M12.9351 0.918889C12.8159 0.6625 12.5595 0.5 12.2778 0.5H0.722288C0.440621 0.5 0.184232 0.666111 0.0650654 0.918889C-0.0504902 1.17528 -0.0107679 1.47861 0.173399 1.69167L4.3334 6.545V12.7778C4.3334 13.0522 4.48868 13.3014 4.73423 13.4242C4.83534 13.4747 4.94729 13.5 5.05562 13.5C5.20729 13.5 5.36257 13.4494 5.48895 13.3556L8.37784 11.1889C8.5584 11.0517 8.66673 10.8386 8.66673 10.6111V6.545L12.8267 1.69167C13.0109 1.47861 13.0506 1.17528 12.9351 0.918889Z" fill="#6A6A6A"/>
    </g>
    <defs>
        <clipPath id="clip0_135_5046">
            <rect width="13" height="13" fill="white" transform="translate(0 0.5)"/>
        </clipPath>
    </defs>
</svg>
