;<svg width="8" height="14" viewBox="0 0 8 14" fill="none" xmlns="http://www.w3.org/2000/svg">
  <path
    d="M4.5122 5.06616H3.223C1.44713 5.06616 0 6.51329 0 8.28916C0 9.13037 0.538241 9.84587 1.2892 10.1134V10.8676C1.2892 12.2889 2.44626 13.446 3.8676 13.446C5.28894 13.446 6.446 12.2889 6.446 10.8676V10.1134C7.19696 9.84587 7.7352 9.13037 7.7352 8.28916C7.7352 6.51329 6.28807 5.06616 4.5122 5.06616Z"
    fill="#525252"
  />
  <path
    d="M3.86758 4.42156C4.93559 4.42156 5.80138 3.55576 5.80138 2.48776C5.80138 1.41975 4.93559 0.553955 3.86758 0.553955C2.79957 0.553955 1.93378 1.41975 1.93378 2.48776C1.93378 3.55576 2.79957 4.42156 3.86758 4.42156Z"
    fill="#525252"
  />
</svg>
