;<svg width="15" height="15" viewBox="0 0 15 15" fill="none" xmlns="http://www.w3.org/2000/svg">
  <path
    d="M12.5 0H2.5C1.125 0 0 1.125 0 2.5V12.5C0 13.875 1.125 15 2.5 15H12.5C13.875 15 15 13.875 15 12.5V2.5C15 1.125 13.875 0 12.5 0ZM4.4875 2.47083C5.4625 2.47083 6.24583 3.25833 6.24583 4.22917C6.24583 5.2 5.45833 5.9875 4.4875 5.9875C3.51667 5.9875 2.72917 5.2 2.72917 4.22917C2.72917 3.25833 3.51667 2.47083 4.4875 2.47083ZM12.625 12.5292H2.50417C2 12.5292 1.67083 12.0833 1.90417 11.7125L4.49167 7.5125C4.7125 7.15833 5.31667 7.14167 5.57083 7.475L6.47917 8.68333C6.7375 9.02083 7.35417 8.99167 7.56667 8.63333L9.8 4.78333C10.0458 4.35833 10.8042 4.41667 10.9625 4.875L13.2792 11.825C13.3958 12.1792 13.075 12.5375 12.625 12.5375V12.5292Z"
    fill="white"
  />
</svg>
