<svg width="24" height="24" viewBox="0 0 24 24" fill="none" xmlns="http://www.w3.org/2000/svg">
<path d="M20 0H4C1.8 0 0 1.8 0 4V20C0 22.2 1.8 24 4 24H20C22.2 24 24 22.2 24 20V4C24 1.8 22.2 0 20 0ZM7.18 3.95333C8.74 3.95333 9.99333 5.21333 9.99333 6.76667C9.99333 8.32 8.73333 9.58 7.18 9.58C5.62667 9.58 4.36667 8.32 4.36667 6.76667C4.36667 5.21333 5.62667 3.95333 7.18 3.95333ZM20.2 20.0467H4.00667C3.2 20.0467 2.67333 19.3333 3.04667 18.74L7.18667 12.02C7.54 11.4533 8.50667 11.4267 8.91333 11.96L10.3667 13.8933C10.78 14.4333 11.7667 14.3867 12.1067 13.8133L15.68 7.65333C16.0733 6.97333 17.2867 7.06667 17.54 7.8L21.2467 18.92C21.4333 19.4867 20.92 20.06 20.2 20.06V20.0467Z" fill="#6A6A6A"/>
</svg>
