<svg width="12" height="10" viewBox="0 0 12 10" fill="none" xmlns="http://www.w3.org/2000/svg">
<path d="M6.00006 4.03712L10.7862 0.209824C10.5127 0.0796799 10.2072 0 9.88319 0H2.11692C1.79288 0 1.4901 0.0796799 1.21387 0.209824L6.00006 4.03712Z" fill="#6E6E6E"/>
<path d="M6.4409 5.49268C6.31076 5.59626 6.15671 5.64673 6 5.64673C5.84329 5.64673 5.68924 5.59626 5.5591 5.49268L0.209827 1.21387C0.0796813 1.49009 0 1.79287 0 2.11691V7.05706C0 8.2257 0.950863 9.17389 2.11687 9.17389H9.88313C11.0518 9.17389 12 8.22304 12 7.05706V2.11691C12 1.79287 11.9203 1.48743 11.7902 1.21387L6.4409 5.49268Z" fill="#6E6E6E"/>
</svg>
