;<svg width="11" height="14" viewBox="0 0 11 14" fill="none" xmlns="http://www.w3.org/2000/svg">
  <path
    d="M2.57839 4.42497C3.6464 4.42497 4.51219 3.55918 4.51219 2.49117C4.51219 1.42316 3.6464 0.557373 2.57839 0.557373C1.51038 0.557373 0.644592 1.42316 0.644592 2.49117C0.644592 3.55918 1.51038 4.42497 2.57839 4.42497Z"
    fill="#525252"
  />
  <path
    d="M2.5784 5.06958C1.15383 5.06958 0 6.22341 0 7.64798V9.58178C0 9.93631 0.29007 10.2264 0.6446 10.2264V11.5156C0.6446 12.3632 1.19251 13.082 1.95314 13.343C1.96281 13.343 1.97248 13.3495 1.97892 13.3527C2.07884 13.3849 2.18197 13.4075 2.28511 13.4236C2.298 13.4236 2.30767 13.43 2.32056 13.4333C2.33345 13.4333 2.34635 13.4333 2.36246 13.4333C2.39791 13.4365 2.43337 13.4397 2.46882 13.4397C2.50427 13.4397 2.53973 13.4429 2.57518 13.4429C2.61063 13.4429 2.64608 13.4429 2.68153 13.4397C2.71699 13.4397 2.75244 13.4365 2.78789 13.4333C2.80079 13.4333 2.81368 13.4333 2.82979 13.4333C2.84269 13.4333 2.85236 13.4268 2.86525 13.4236C2.97161 13.4075 3.07474 13.3849 3.17143 13.3527C3.1811 13.3527 3.19077 13.3462 3.19722 13.343C3.95784 13.082 4.50575 12.3632 4.50575 11.5156V10.2264C4.86028 10.2264 5.15035 9.93631 5.15035 9.58178V7.64798C5.15035 6.22341 3.99652 5.06958 2.57195 5.06958H2.5784Z"
    fill="#525252"
  />
  <path
    d="M8.37978 4.42497C9.44779 4.42497 10.3136 3.55918 10.3136 2.49117C10.3136 1.42316 9.44779 0.557373 8.37978 0.557373C7.31178 0.557373 6.44598 1.42316 6.44598 2.49117C6.44598 3.55918 7.31178 4.42497 8.37978 4.42497Z"
    fill="#525252"
  />
  <path
    d="M8.37979 5.06958C6.95523 5.06958 5.80139 6.22341 5.80139 7.64798V9.58178C5.80139 9.93631 6.09146 10.2264 6.44599 10.2264V11.5156C6.44599 12.3632 6.9939 13.082 7.75453 13.343C7.7642 13.343 7.77387 13.3495 7.78031 13.3527C7.88023 13.3849 7.98336 13.4075 8.0865 13.4236C8.09939 13.4236 8.10906 13.43 8.12195 13.4333C8.13484 13.4333 8.14774 13.4333 8.16385 13.4333C8.1993 13.4365 8.23476 13.4397 8.27021 13.4397C8.30566 13.4397 8.34112 13.4429 8.37657 13.4429C8.41202 13.4429 8.44747 13.4429 8.48293 13.4397C8.51838 13.4397 8.55383 13.4365 8.58929 13.4333C8.60218 13.4333 8.61507 13.4333 8.63119 13.4333C8.64408 13.4333 8.65375 13.4268 8.66664 13.4236C8.773 13.4075 8.87613 13.3849 8.97282 13.3527C8.98249 13.3527 8.99216 13.3462 8.99861 13.343C9.75924 13.082 10.3071 12.3632 10.3071 11.5156V10.2264C10.6617 10.2264 10.9517 9.93631 10.9517 9.58178V7.64798C10.9517 6.22341 9.79791 5.06958 8.37334 5.06958H8.37979Z"
    fill="#525252"
  />
</svg>
