;<svg width="10" height="10" viewBox="0 0 10 10" fill="none" xmlns="http://www.w3.org/2000/svg">
  <path
    d="M9.58056 6.12501L7.35833 5.56945C7.10556 5.50834 6.84167 5.62779 6.72778 5.86112L6.33333 6.64723C4.76111 6.4889 3.50833 5.23612 3.35278 3.66667L4.13889 3.27223C4.37222 3.15556 4.49167 2.89445 4.43056 2.64167L3.875 0.419452C3.81389 0.17223 3.59167 7.71972e-06 3.33611 7.71972e-06H1.66944C0.747222 -0.00277006 0 0.744452 0 1.6639V2.77501C0 6.75834 3.23889 9.99723 7.22222 9.99723H8.33333C9.25278 9.99723 10 9.25001 10 8.33056V6.6639C10 6.40834 9.82778 6.18612 9.58056 6.12501Z"
    fill="#6E6E6E"
  />
</svg>
