;<svg width="27" height="23" viewBox="0 0 27 23" fill="none" xmlns="http://www.w3.org/2000/svg">
  <g clip-path="url(#clip0_1_3146)">
    <path
      d="M13.4969 9.58507C15.6186 9.58507 17.3567 11.3127 17.3567 13.4215C17.3567 15.5303 15.6186 17.2579 13.4969 17.2579C11.3753 17.2579 9.63711 15.5303 9.63711 13.4215C9.63711 11.3127 11.3753 9.58507 13.4969 9.58507ZM13.4969 9.58507C11.3753 9.58507 9.63711 11.3127 9.63711 13.4215C9.63711 15.5303 11.3753 17.2579 13.4969 17.2579C15.6186 17.2579 17.3567 15.5303 17.3567 13.4215C17.3567 11.3127 15.6186 9.58507 13.4969 9.58507ZM24.1052 3.83661H20.2454C19.9546 3.83661 19.6639 3.73824 19.4722 3.45543L17.6412 1.15604C17.1588 0.485899 16.2928 0.00634766 15.4206 0.00634766H11.5608C10.5959 0.00634766 9.7299 0.485899 9.24742 1.15604L7.50928 3.45543C7.31753 3.64602 7.02681 3.83661 6.73608 3.83661H2.87629C1.23712 3.83661 -0.0185547 5.08467 -0.0185547 6.71391V20.129C-0.0185547 21.7583 1.23712 23.0063 2.87629 23.0063H24.0866C25.7258 23.0063 26.9814 21.7583 26.9814 20.129V6.70776C26.9814 5.07852 25.7258 3.83046 24.0866 3.83046L24.1052 3.83661ZM13.4969 19.1699C10.3175 19.1699 7.7134 16.5816 7.7134 13.4215C7.7134 10.2614 10.3175 7.67301 13.4969 7.67301C16.6763 7.67301 19.2804 10.2614 19.2804 13.4215C19.2804 16.5816 16.6763 19.1699 13.4969 19.1699ZM22.6577 9.58507C21.8845 9.58507 21.2103 8.91493 21.2103 8.14642C21.2103 7.37791 21.8845 6.70776 22.6577 6.70776C23.4309 6.70776 24.1052 7.37791 24.1052 8.14642C24.1052 8.91493 23.4309 9.58507 22.6577 9.58507ZM13.4969 9.58507C11.3753 9.58507 9.63711 11.3127 9.63711 13.4215C9.63711 15.5303 11.3753 17.2579 13.4969 17.2579C15.6186 17.2579 17.3567 15.5303 17.3567 13.4215C17.3567 11.3127 15.6186 9.58507 13.4969 9.58507ZM13.4969 9.58507C11.3753 9.58507 9.63711 11.3127 9.63711 13.4215C9.63711 15.5303 11.3753 17.2579 13.4969 17.2579C15.6186 17.2579 17.3567 15.5303 17.3567 13.4215C17.3567 11.3127 15.6186 9.58507 13.4969 9.58507ZM13.4969 9.58507C11.3753 9.58507 9.63711 11.3127 9.63711 13.4215C9.63711 15.5303 11.3753 17.2579 13.4969 17.2579C15.6186 17.2579 17.3567 15.5303 17.3567 13.4215C17.3567 11.3127 15.6186 9.58507 13.4969 9.58507ZM13.4969 9.58507C11.3753 9.58507 9.63711 11.3127 9.63711 13.4215C9.63711 15.5303 11.3753 17.2579 13.4969 17.2579C15.6186 17.2579 17.3567 15.5303 17.3567 13.4215C17.3567 11.3127 15.6186 9.58507 13.4969 9.58507ZM13.4969 9.58507C11.3753 9.58507 9.63711 11.3127 9.63711 13.4215C9.63711 15.5303 11.3753 17.2579 13.4969 17.2579C15.6186 17.2579 17.3567 15.5303 17.3567 13.4215C17.3567 11.3127 15.6186 9.58507 13.4969 9.58507ZM13.4969 9.58507C11.3753 9.58507 9.63711 11.3127 9.63711 13.4215C9.63711 15.5303 11.3753 17.2579 13.4969 17.2579C15.6186 17.2579 17.3567 15.5303 17.3567 13.4215C17.3567 11.3127 15.6186 9.58507 13.4969 9.58507Z"
      fill="#5A5A5A"
    />
  </g>
  <defs>
    <clipPath id="clip0_1_3146">
      <rect width="27" height="23" fill="white" />
    </clipPath>
  </defs>
</svg>
