<svg width="12" height="12" viewBox="0 0 12 12" fill="none" xmlns="http://www.w3.org/2000/svg">
    <g opacity="0.7">
        <path d="M11.805 10.8648L9.54133 8.60119C10.2448 7.69774 10.6681 6.56758 10.6681 5.33407C10.6681 2.39367 8.27448 0 5.33407 0C2.39367 0 0 2.39367 0 5.33407C0 8.27448 2.39367 10.6681 5.33407 10.6681C6.56425 10.6681 7.6944 10.2448 8.6012 9.54133L10.8648 11.805C10.9949 11.935 11.1649 12.0017 11.3349 12.0017C11.5049 12.0017 11.675 11.935 11.805 11.805C12.065 11.5449 12.065 11.1215 11.805 10.8615V10.8648ZM1.33352 5.33407C1.33352 3.1271 3.1271 1.33352 5.33407 1.33352C7.54105 1.33352 9.33463 3.1271 9.33463 5.33407C9.33463 6.53091 8.80456 7.60439 7.96777 8.33782C7.80775 7.39103 6.99097 6.66759 6.00083 6.66759H4.66732C3.67718 6.66759 2.8604 7.39103 2.70038 8.33782C1.86359 7.60439 1.33352 6.53091 1.33352 5.33407Z" fill="black"/>
        <path d="M5.3344 6.00143C6.43929 6.00143 7.33499 5.10574 7.33499 4.00084C7.33499 2.89594 6.43929 2.00024 5.3344 2.00024C4.2295 2.00024 3.3338 2.89594 3.3338 4.00084C3.3338 5.10574 4.2295 6.00143 5.3344 6.00143Z" fill="black"/>
    </g>
</svg>
