<svg width="15" height="19" viewBox="0 0 15 19" fill="none" xmlns="http://www.w3.org/2000/svg">
<path d="M12.1875 0.950195V3.8002C12.1875 4.3227 11.7656 4.7502 11.25 4.7502C10.7344 4.7502 10.3125 4.3227 10.3125 3.8002V0.950195H8.4375V3.8002C8.4375 4.3227 8.01562 4.7502 7.5 4.7502C6.98438 4.7502 6.5625 4.3227 6.5625 3.8002V0.950195H4.6875V3.8002C4.6875 4.3227 4.26562 4.7502 3.75 4.7502C3.23438 4.7502 2.8125 4.3227 2.8125 3.8002V0.950195C1.26094 0.950195 0 2.22795 0 3.8002V16.1502C0 17.7224 1.26094 19.0002 2.8125 19.0002H12.1875C13.7391 19.0002 15 17.7224 15 16.1502V3.8002C15 2.22795 13.7391 0.950195 12.1875 0.950195ZM8.4375 15.2002H4.6875C4.17188 15.2002 3.75 14.7727 3.75 14.2502C3.75 13.7277 4.17188 13.3002 4.6875 13.3002H8.4375C8.95312 13.3002 9.375 13.7277 9.375 14.2502C9.375 14.7727 8.95312 15.2002 8.4375 15.2002ZM10.3125 11.4002H4.6875C4.17188 11.4002 3.75 10.9727 3.75 10.4502C3.75 9.9277 4.17188 9.5002 4.6875 9.5002H10.3125C10.8281 9.5002 11.25 9.9277 11.25 10.4502C11.25 10.9727 10.8281 11.4002 10.3125 11.4002Z" fill="#5A5A5A"/>
</svg>
