<svg width="24" height="29" viewBox="0 0 24 29" fill="none" xmlns="http://www.w3.org/2000/svg">
<path d="M20.2778 10.4H16.6667V9.6C16.6667 8.716 16.0203 8 15.2222 8H13.7778C12.9797 8 12.3333 8.716 12.3333 9.6V10.4H8.72222C8.325 10.4 8 10.76 8 11.2C8 11.64 8.325 12 8.72222 12H20.2778C20.6786 12 21 11.64 21 11.2C21 10.76 20.6786 10.4 20.2778 10.4Z" fill="#5A5A5A"/>
<path d="M10 13L10.4664 19.1533C10.5453 20.1867 11.4058 21 12.4307 21H16.5693C17.5942 21 18.4547 20.1867 18.5336 19.1533L19 13H10ZM13.8431 18.3333C13.8431 18.7 13.5474 19 13.1861 19C12.8248 19 12.5292 18.7 12.5292 18.3333V15C12.5292 14.6333 12.8248 14.3333 13.1861 14.3333C13.5474 14.3333 13.8431 14.6333 13.8431 15V18.3333ZM16.4708 18.3333C16.4708 18.7 16.1785 19 15.8139 19C15.4493 19 15.1569 18.7 15.1569 18.3333V15C15.1569 14.6333 15.4493 14.3333 15.8139 14.3333C16.1785 14.3333 16.4708 14.6333 16.4708 15V18.3333Z" fill="#5A5A5A"/>
</svg>
