<svg width="16" height="16" viewBox="0 0 16 16" fill="none" xmlns="http://www.w3.org/2000/svg">
    <path d="M7.85233 15.6922C3.64305 15.6922 0.222221 12.2243 0.222221 7.95717C0.222221 4.05958 3.09199 0.759303 6.89857 0.278013C7.13595 0.25223 7.38181 0.325285 7.56408 0.48858C7.74636 0.651875 7.85233 0.883926 7.85233 1.13317V7.95717H14.5838C14.8254 7.95717 15.0585 8.06461 15.2196 8.24939C15.3807 8.43417 15.457 8.67911 15.4273 8.92405C14.9568 12.783 11.6971 15.6922 7.85233 15.6922Z" fill="black"/>
    <path d="M15.4571 6.02343C15.3723 5.67965 15.2621 5.34447 15.1264 5.01788C14.3295 2.99818 12.7441 1.39102 10.7518 0.583138C10.4297 0.445626 10.099 0.333895 9.75991 0.24795C9.69208 0.230761 9.61578 0.222168 9.54796 0.222168V6.2383H15.4825C15.4825 6.16954 15.474 6.09219 15.4571 6.02343Z" fill="black"/>
</svg>
