<svg width="17" height="16" viewBox="0 0 17 16" fill="none" xmlns="http://www.w3.org/2000/svg">
    <path d="M13.8002 0.730469H12.2028V3.15953C12.2028 3.60486 11.8474 3.96922 11.4041 3.96922C10.9608 3.96922 10.6054 3.60486 10.6054 3.15953V0.730469H5.81315V3.15953C5.81315 3.60486 5.45773 3.96922 5.01445 3.96922C4.57117 3.96922 4.21574 3.60486 4.21574 3.15953V0.730469H2.61834C1.29648 0.730469 0.222221 1.8195 0.222221 3.15953V12.8758C0.222221 14.2158 1.29648 15.3048 2.61834 15.3048H13.8002C15.1221 15.3048 16.1963 14.2158 16.1963 12.8758V3.15953C16.1963 1.8195 15.1221 0.730469 13.8002 0.730469ZM5.81315 11.2564C5.81315 11.7017 5.45773 12.0661 5.01445 12.0661C4.57117 12.0661 4.21574 11.7017 4.21574 11.2564V10.4467C4.21574 10.0014 4.57117 9.63703 5.01445 9.63703C5.45773 9.63703 5.81315 10.0014 5.81315 10.4467V11.2564ZM5.81315 8.01765C5.81315 8.46298 5.45773 8.82734 5.01445 8.82734C4.57117 8.82734 4.21574 8.46298 4.21574 8.01765V7.20797C4.21574 6.76264 4.57117 6.39828 5.01445 6.39828C5.45773 6.39828 5.81315 6.76264 5.81315 7.20797V8.01765ZM9.00797 11.2564C9.00797 11.7017 8.65255 12.0661 8.20927 12.0661C7.76599 12.0661 7.41056 11.7017 7.41056 11.2564V10.4467C7.41056 10.0014 7.76599 9.63703 8.20927 9.63703C8.65255 9.63703 9.00797 10.0014 9.00797 10.4467V11.2564ZM9.00797 8.01765C9.00797 8.46298 8.65255 8.82734 8.20927 8.82734C7.76599 8.82734 7.41056 8.46298 7.41056 8.01765V7.20797C7.41056 6.76264 7.76599 6.39828 8.20927 6.39828C8.65255 6.39828 9.00797 6.76264 9.00797 7.20797V8.01765ZM12.2028 11.2564C12.2028 11.7017 11.8474 12.0661 11.4041 12.0661C10.9608 12.0661 10.6054 11.7017 10.6054 11.2564V10.4467C10.6054 10.0014 10.9608 9.63703 11.4041 9.63703C11.8474 9.63703 12.2028 10.0014 12.2028 10.4467V11.2564ZM12.2028 8.01765C12.2028 8.46298 11.8474 8.82734 11.4041 8.82734C10.9608 8.82734 10.6054 8.46298 10.6054 8.01765V7.20797C10.6054 6.76264 10.9608 6.39828 11.4041 6.39828C11.8474 6.39828 12.2028 6.76264 12.2028 7.20797V8.01765Z" fill="black"/>
</svg>
