<svg width="13" height="13" viewBox="0 0 13 13" fill="none" xmlns="http://www.w3.org/2000/svg">
    <path d="M10.8333 0H2.16667C0.971389 0 0 0.971389 0 2.16667V12.2778C0 12.5703 0.176944 12.8339 0.444167 12.9458C0.534444 12.9819 0.628333 13 0.722222 13C0.91 13 1.09417 12.9278 1.23139 12.7869L3.90722 10.1111H10.8297C12.025 10.1111 12.9964 9.13972 12.9964 7.94444V2.16667C12.9964 0.971389 12.025 0 10.8297 0H10.8333ZM9.38889 7.22222H3.61111C3.21028 7.22222 2.88889 6.89722 2.88889 6.5C2.88889 6.10278 3.21028 5.77778 3.61111 5.77778H9.38889C9.78972 5.77778 10.1111 6.10278 10.1111 6.5C10.1111 6.89722 9.78972 7.22222 9.38889 7.22222ZM9.38889 4.33333H3.61111C3.21028 4.33333 2.88889 4.00833 2.88889 3.61111C2.88889 3.21389 3.21028 2.88889 3.61111 2.88889H9.38889C9.78972 2.88889 10.1111 3.21389 10.1111 3.61111C10.1111 4.00833 9.78972 4.33333 9.38889 4.33333Z" fill="#5A5A5A"/>
</svg>
