<svg width="16" height="13" viewBox="0 0 16 13" fill="none" xmlns="http://www.w3.org/2000/svg">
    <path d="M5.55183 4.96442C5.97059 4.96442 6.31321 5.31175 6.31321 5.73626C6.31321 6.58915 6.99463 7.27995 7.83595 7.27995C8.67727 7.27995 9.3587 6.58915 9.3587 5.73626C9.3587 5.31175 9.70131 4.96442 10.1201 4.96442H15.1604L13.5082 1.61463C13.1199 0.823493 12.3357 0.333374 11.4639 0.333374H4.20801C3.33624 0.333374 2.55584 0.823493 2.16373 1.61463L0.511551 4.96442H5.55183Z" fill="black"/>
    <path d="M10.7863 6.50806C10.4474 7.83948 9.2521 8.82358 7.83594 8.82358C6.41979 8.82358 5.22444 7.83948 4.88563 6.50806H0.222221V10.3673C0.222221 11.6447 1.24627 12.6828 2.50634 12.6828H13.1655C14.4256 12.6828 15.4497 11.6447 15.4497 10.3673V6.50806H10.7863Z" fill="black"/>
</svg>
