<svg width="13" height="11" viewBox="0 0 13 11" fill="none" xmlns="http://www.w3.org/2000/svg">
    <path d="M6.3158 4.63507L11.3539 0.590163C11.0659 0.452619 10.7444 0.368408 10.4033 0.368408H2.22829C1.8872 0.368408 1.56848 0.452619 1.27771 0.590163L6.3158 4.63507Z" fill="#BACF69"/>
    <path d="M6.7799 6.17335C6.6429 6.28282 6.48074 6.33616 6.31579 6.33616C6.15084 6.33616 5.98868 6.28282 5.85168 6.17335L0.220871 1.65125C0.083875 1.94317 0 2.26317 0 2.60563V7.82668C0 9.06177 1.00091 10.0639 2.22828 10.0639H10.4033C11.6335 10.0639 12.6316 9.05896 12.6316 7.82668V2.60563C12.6316 2.26317 12.5477 1.94037 12.4107 1.65125L6.7799 6.17335Z" fill="#BACF69"/>
</svg>
